<svg height="638" width="720" xmlns="http://www.w3.org/2000/svg">
<rect height="638" fill="#555" width="720"></rect>
<text fill="#7f7" font-family="Courier New" font-size="12" xml:space="preserve">
<tspan x="10" y="26">6 megabytes installed</tspan>
<tspan x="10" y="42"></tspan>
<tspan x="10" y="58">node_modules</tspan>
<tspan x="10" y="74">└─┬ simple-autoreload-server@0.2.6 </tspan>
<tspan x="10" y="90">  ├── colors@0.6.2 </tspan>
<tspan x="10" y="106">  ├─┬ connect@2.13.1 </tspan>
<tspan x="10" y="122">  │ ├── batch@0.5.0 </tspan>
<tspan x="10" y="138">  │ ├── buffer-crc32@0.2.1 </tspan>
<tspan x="10" y="154">  │ ├── bytes@0.2.1 </tspan>
<tspan x="10" y="170">  │ ├── compressible@1.0.0 </tspan>
<tspan x="10" y="186">  │ ├── cookie@0.1.0 </tspan>
<tspan x="10" y="202">  │ ├── cookie-signature@1.0.1 </tspan>
<tspan x="10" y="218">  │ ├── debug@0.8.1 </tspan>
<tspan x="10" y="234">  │ ├── fresh@0.2.0 </tspan>
<tspan x="10" y="250">  │ ├── methods@0.1.0 </tspan>
<tspan x="10" y="266">  │ ├─┬ multiparty@2.2.0 </tspan>
<tspan x="10" y="282">  │ │ ├─┬ readable-stream@1.1.14 </tspan>
<tspan x="10" y="298">  │ │ │ ├── core-util-is@1.0.2 </tspan>
<tspan x="10" y="314">  │ │ │ ├── inherits@2.0.3 </tspan>
<tspan x="10" y="330">  │ │ │ ├── isarray@0.0.1 </tspan>
<tspan x="10" y="346">  │ │ │ └── string_decoder@0.10.31 </tspan>
<tspan x="10" y="362">  │ │ └── stream-counter@0.2.0 </tspan>
<tspan x="10" y="378">  │ ├── negotiator@0.3.0 </tspan>
<tspan x="10" y="394">  │ ├── pause@0.0.1 </tspan>
<tspan x="10" y="410">  │ ├── qs@0.6.6 </tspan>
<tspan x="10" y="426">  │ ├── raw-body@1.1.3 </tspan>
<tspan x="10" y="442">  │ ├─┬ send@0.1.4 </tspan>
<tspan x="10" y="458">  │ │ ├── mime@1.2.11 </tspan>
<tspan x="10" y="474">  │ │ └── range-parser@0.0.4 </tspan>
<tspan x="10" y="490">  │ └── uid2@0.0.3 </tspan>
<tspan x="10" y="506">  ├─┬ faye-websocket@0.9.2 </tspan>
<tspan x="10" y="522">  │ └─┬ websocket-driver@0.6.5 </tspan>
<tspan x="10" y="538">  │   └── websocket-extensions@0.1.1 </tspan>
<tspan x="10" y="554">  ├─┬ minimatch@3.0.2 </tspan>
<tspan x="10" y="570">  │ └─┬ brace-expansion@1.1.7 </tspan>
<tspan x="10" y="586">  │   ├── balanced-match@0.4.2 </tspan>
<tspan x="10" y="602">  │   └── concat-map@0.0.1 </tspan>
<tspan x="10" y="618">  └── opener@1.4.1</tspan>
</text>
</svg>
